<svg xmlns="http://www.w3.org/2000/svg" viewBox="0 0 24 24" fill="none" stroke="currentColor" stroke-width="1.4" stroke-linecap="round" stroke-linejoin="round">
  <path d="M5 2.5h9l4.5 4.5V21a0.5 0.5 0 0 1-.5.5H5a0.5 0.5 0 0 1-.5-.5V3a0.5 0.5 0 0 1 .5-.5z"/>
  <path d="M14 2.5V7h4.5"/>
  <text x="12" y="11.5" font-family="monospace" font-size="4.2" font-weight="bold"
        text-anchor="middle" fill="currentColor" stroke="none">OPSX</text>
  <path d="M8 15.2a3 3 0 0 1 5-1.4"/>
  <path d="M16 16.8a3 3 0 0 1-5 1.4"/>
  <path d="M13 12.2v1.8h-1.8"/>
  <path d="M11 18.8v-1.8h1.8"/>
</svg>