<svg xmlns="http://www.w3.org/2000/svg" viewBox="0 0 24 24" fill="none" stroke="currentColor" stroke-width="1.5" stroke-linecap="round" stroke-linejoin="round">
  <path d="M4 3.5h7l3 3v8.5a0.6 0.6 0 0 1-.6.6H4a0.6 0.6 0 0 1-.6-.6V4.1a0.6 0.6 0 0 1 .6-.6z"/>
  <path d="M10 8.5h7l3.5 3.5v8.4a0.6 0.6 0 0 1-.6.6h-9.8a0.6 0.6 0 0 1-.6-.6V9.1a0.6 0.6 0 0 1 .6-.6z"/>
  <path d="M17 8.5V12h3.5"/>
  <path d="M13.5 18.5V14m0 4.5l-1.6-1.6m1.6 1.6l1.6-1.6"/>
  <path d="M17 14v4.5m0-4.5l-1.6 1.6m1.6-1.6l1.6 1.6"/>
</svg>